<svg xmlns="http://www.w3.org/2000/svg" viewBox="0 0 64 64" role="img" aria-labelledby="title desc">
  <title id="title">GB monogram</title>
  <desc id="desc">A restrained geometric GB monogram for Giovanni Barcelos.</desc>
  <path d="M31 10c-12 0-21 9-21 22s9 22 21 22c7 0 13-3 17-8V32H31v7h9v4c-2 2-5 3-9 3-8 0-13-5-13-14s5-14 13-14c5 0 9 2 12 6l5-5c-4-6-10-9-17-9Z" fill="#b8944b"/>
  <path d="M38 18h8c7 0 11 4 11 10 0 4-2 7-5 9 4 2 6 5 6 10 0 5-4 9-11 9H38v-7h8c3 0 5-1 5-3 0-3-2-4-5-4h-8v-7h7c3 0 4-1 4-3s-2-3-5-3h-6v-7Z" fill="#f6f1e8"/>
</svg>
